<svg width="20" height="21" viewBox="0 0 20 21" fill="none" xmlns="http://www.w3.org/2000/svg">
<path d="M12.3807 14.7348C13.9595 14.5475 15.4819 14.1763 16.9259 13.6432C15.7286 12.3142 14.9998 10.5547 14.9998 8.625V8.04099C14.9999 8.02734 15 8.01368 15 8C15 5.23858 12.7614 3 10 3C7.23858 3 5 5.23858 5 8L4.99984 8.625C4.99984 10.5547 4.27106 12.3142 3.07373 13.6432C4.51784 14.1763 6.04036 14.5475 7.61928 14.7348M12.3807 14.7348C11.6 14.8274 10.8055 14.875 9.99984 14.875C9.19431 14.875 8.3999 14.8274 7.61928 14.7348M12.3807 14.7348C12.4582 14.9759 12.5 15.2331 12.5 15.5C12.5 16.8807 11.3807 18 10 18C8.61929 18 7.5 16.8807 7.5 15.5C7.5 15.2331 7.54183 14.976 7.61928 14.7348M2.6037 6.75C2.8431 5.32303 3.48544 4.0327 4.40973 3M15.5903 3C16.5146 4.0327 17.1569 5.32303 17.3963 6.75" stroke="white" stroke-width="1.5" stroke-linecap="round" stroke-linejoin="round"/>
</svg>
