<svg width="145" height="28" viewBox="0 0 145 28" fill="none" xmlns="http://www.w3.org/2000/svg">
<path d="M22.9121 21H18.9883V14.1367C18.9883 12.9974 18.765 12.1178 18.3184 11.498C17.8717 10.8783 17.2383 10.5684 16.418 10.5684C15.5794 10.5684 14.9232 10.8828 14.4492 11.5117C13.9844 12.1406 13.752 13.0156 13.752 14.1367V21H9.82812V14.1367C9.82812 12.9974 9.60482 12.1178 9.1582 11.498C8.71159 10.8783 8.07357 10.5684 7.24414 10.5684C6.41471 10.5684 5.76302 10.8828 5.28906 11.5117C4.82422 12.1406 4.5918 13.0156 4.5918 14.1367V21H0.667969V7.32812H3.79883L3.93555 9.58398C4.39128 8.75456 5.00195 8.12565 5.76758 7.69727C6.54232 7.26888 7.4401 7.05469 8.46094 7.05469C9.52734 7.05469 10.4479 7.27799 11.2227 7.72461C11.9974 8.17122 12.5944 8.8138 13.0137 9.65234C13.4785 8.80469 14.0938 8.16211 14.8594 7.72461C15.6341 7.27799 16.5501 7.05469 17.6074 7.05469C19.2754 7.05469 20.5742 7.58789 21.5039 8.6543C22.4427 9.71159 22.9121 11.1927 22.9121 13.0977V21ZM32.7012 27.8359H28.5176L31.3613 20.9863L24.457 7.32812H28.8867L33.2207 16.5156L37.0215 7.32812H41.1914L32.7012 27.8359ZM43.2422 21V0.492188H50.2559C51.9785 0.492188 53.4642 0.77474 54.7129 1.33984C55.9707 1.89583 56.9368 2.69336 57.6113 3.73242C58.2858 4.76237 58.623 5.99284 58.623 7.42383C58.623 8.85482 58.2858 10.0944 57.6113 11.1426C56.9368 12.1816 55.9753 12.9837 54.7266 13.5488C53.487 14.1139 52.0104 14.3965 50.2969 14.3965H47.4531V21H43.2422ZM47.4531 10.7051H49.8594C51.2904 10.7051 52.3887 10.4225 53.1543 9.85742C53.929 9.2832 54.3164 8.47201 54.3164 7.42383C54.3164 6.39388 53.929 5.59635 53.1543 5.03125C52.3887 4.45703 51.2904 4.16992 49.8594 4.16992H47.4531V10.7051ZM65.5137 21H61.5898V7.32812H65.0078L65.1445 9.69336C65.6003 8.86393 66.2201 8.2168 67.0039 7.75195C67.7878 7.28711 68.6855 7.05469 69.6973 7.05469C69.9889 7.05469 70.2806 7.07747 70.5723 7.12305C70.873 7.15951 71.1784 7.21875 71.4883 7.30078L70.9961 10.8281C70.3945 10.6549 69.8249 10.5684 69.2871 10.5684C68.5306 10.5684 67.8652 10.7415 67.291 11.0879C66.7259 11.4251 66.2884 11.8991 65.9785 12.5098C65.6686 13.1113 65.5137 13.8177 65.5137 14.6289V21ZM75.2754 4.06055C74.7559 4.06055 74.3184 3.87826 73.9629 3.51367C73.6074 3.14909 73.4297 2.70703 73.4297 2.1875C73.4297 1.66797 73.6074 1.23047 73.9629 0.875C74.3184 0.510417 74.7559 0.328125 75.2754 0.328125C75.804 0.328125 76.2461 0.510417 76.6016 0.875C76.9661 1.23047 77.1484 1.66797 77.1484 2.1875C77.1484 2.70703 76.9661 3.14909 76.6016 3.51367C76.2461 3.87826 75.804 4.06055 75.2754 4.06055ZM77.2441 21H73.3203V7.32812H77.2441V21ZM92.7344 18.8262C92.069 19.5918 91.2533 20.1934 90.2871 20.6309C89.321 21.0592 88.2591 21.2734 87.1016 21.2734C85.6979 21.2734 84.4401 20.9681 83.3281 20.3574C82.2253 19.7376 81.3548 18.89 80.7168 17.8145C80.0879 16.7389 79.7734 15.5221 79.7734 14.1641C79.7734 12.7969 80.0879 11.5801 80.7168 10.5137C81.3548 9.43815 82.2253 8.59505 83.3281 7.98438C84.4401 7.36458 85.6979 7.05469 87.1016 7.05469C88.25 7.05469 89.3073 7.26888 90.2734 7.69727C91.2396 8.12565 92.0553 8.7181 92.7207 9.47461L90.4102 11.8945C90.0547 11.4844 89.6035 11.1654 89.0566 10.9375C88.5189 10.7005 87.9538 10.582 87.3613 10.582C86.6777 10.582 86.0671 10.737 85.5293 11.0469C84.9915 11.3477 84.5677 11.7669 84.2578 12.3047C83.9479 12.8333 83.793 13.444 83.793 14.1367C83.793 14.8385 83.9479 15.4629 84.2578 16.0098C84.5677 16.5566 84.9915 16.985 85.5293 17.2949C86.0671 17.5957 86.6777 17.7461 87.3613 17.7461C87.9538 17.7461 88.5234 17.6322 89.0703 17.4043C89.6172 17.1673 90.0638 16.8438 90.4102 16.4336L92.7344 18.8262ZM107.732 19.4688C106.037 20.6719 104.182 21.2734 102.168 21.2734C100.673 21.2734 99.3288 20.9544 98.1348 20.3164C96.9499 19.6693 96.0111 18.7943 95.3184 17.6914C94.6348 16.5885 94.293 15.3444 94.293 13.959C94.293 12.6374 94.6029 11.457 95.2227 10.418C95.8516 9.37891 96.7038 8.55859 97.7793 7.95703C98.8548 7.35547 100.076 7.05469 101.443 7.05469C102.856 7.05469 104.1 7.38737 105.176 8.05273C106.251 8.70898 107.09 9.62956 107.691 10.8145C108.293 11.9902 108.594 13.3529 108.594 14.9023V15.3398H98.5176C98.6816 15.8776 98.9505 16.3516 99.3242 16.7617C99.6979 17.1628 100.163 17.4818 100.719 17.7188C101.275 17.9557 101.913 18.0742 102.633 18.0742C104.027 18.0742 105.326 17.623 106.529 16.7207L107.732 19.4688ZM98.3398 13.3438H104.971C104.898 12.7513 104.711 12.2318 104.41 11.7852C104.118 11.3294 103.731 10.974 103.248 10.7188C102.774 10.4635 102.241 10.3359 101.648 10.3359C101.047 10.3359 100.509 10.4681 100.035 10.7324C99.5703 10.9967 99.1921 11.3522 98.9004 11.7988C98.6087 12.2454 98.4219 12.7604 98.3398 13.3438ZM111.305 21.1562C110.992 21.1562 110.737 21.0599 110.539 20.8672C110.346 20.6693 110.25 20.4115 110.25 20.0938C110.25 19.776 110.346 19.5208 110.539 19.3281C110.737 19.1302 110.992 19.0312 111.305 19.0312C111.622 19.0312 111.88 19.1302 112.078 19.3281C112.276 19.5208 112.375 19.776 112.375 20.0938C112.375 20.4115 112.276 20.6693 112.078 20.8672C111.88 21.0599 111.622 21.1562 111.305 21.1562ZM120.852 19.7578C120.471 20.1953 120.005 20.5391 119.453 20.7891C118.901 21.0339 118.294 21.1562 117.633 21.1562C116.831 21.1562 116.112 20.9818 115.477 20.6328C114.846 20.2786 114.349 19.7943 113.984 19.1797C113.625 18.5651 113.445 17.8698 113.445 17.0938C113.445 16.3125 113.625 15.6172 113.984 15.0078C114.349 14.3932 114.846 13.9115 115.477 13.5625C116.112 13.2083 116.831 13.0312 117.633 13.0312C118.289 13.0312 118.893 13.1536 119.445 13.3984C119.997 13.6432 120.464 13.9818 120.844 14.4141L119.523 15.7969C119.32 15.5625 119.062 15.3802 118.75 15.25C118.443 15.1146 118.12 15.0469 117.781 15.0469C117.391 15.0469 117.042 15.1354 116.734 15.3125C116.427 15.4844 116.185 15.724 116.008 16.0312C115.831 16.3333 115.742 16.6823 115.742 17.0781C115.742 17.4792 115.831 17.8359 116.008 18.1484C116.185 18.4609 116.427 18.7057 116.734 18.8828C117.042 19.0547 117.391 19.1406 117.781 19.1406C118.12 19.1406 118.445 19.0755 118.758 18.9453C119.07 18.8099 119.326 18.625 119.523 18.3906L120.852 19.7578ZM125.938 21.1562C125.135 21.1562 124.417 20.9818 123.781 20.6328C123.146 20.2786 122.646 19.7969 122.281 19.1875C121.922 18.5729 121.742 17.875 121.742 17.0938C121.742 16.3177 121.922 15.625 122.281 15.0156C122.646 14.401 123.146 13.9167 123.781 13.5625C124.417 13.2083 125.135 13.0312 125.938 13.0312C126.74 13.0312 127.453 13.2083 128.078 13.5625C128.708 13.9167 129.203 14.401 129.562 15.0156C129.927 15.625 130.109 16.3177 130.109 17.0938C130.109 17.875 129.927 18.5729 129.562 19.1875C129.203 19.7969 128.708 20.2786 128.078 20.6328C127.453 20.9818 126.74 21.1562 125.938 21.1562ZM125.93 19.1484C126.289 19.1484 126.609 19.0599 126.891 18.8828C127.177 18.7005 127.401 18.4557 127.562 18.1484C127.729 17.8359 127.812 17.4792 127.812 17.0781C127.812 16.6927 127.729 16.3464 127.562 16.0391C127.401 15.7318 127.177 15.4896 126.891 15.3125C126.609 15.1302 126.289 15.0391 125.93 15.0391C125.565 15.0391 125.24 15.1302 124.953 15.3125C124.672 15.4896 124.448 15.7318 124.281 16.0391C124.12 16.3464 124.039 16.6927 124.039 17.0781C124.039 17.4792 124.12 17.8359 124.281 18.1484C124.448 18.4557 124.672 18.7005 124.953 18.8828C125.24 19.0599 125.565 19.1484 125.93 19.1484ZM144.25 21H142.008V17.0781C142.008 16.4271 141.88 15.9245 141.625 15.5703C141.37 15.2161 141.008 15.0391 140.539 15.0391C140.06 15.0391 139.685 15.2188 139.414 15.5781C139.148 15.9375 139.016 16.4375 139.016 17.0781V21H136.773V17.0781C136.773 16.4271 136.646 15.9245 136.391 15.5703C136.135 15.2161 135.771 15.0391 135.297 15.0391C134.823 15.0391 134.451 15.2188 134.18 15.5781C133.914 15.9375 133.781 16.4375 133.781 17.0781V21H131.539V13.1875H133.328L133.406 14.4766C133.667 14.0026 134.016 13.6432 134.453 13.3984C134.896 13.1536 135.409 13.0312 135.992 13.0312C136.602 13.0312 137.128 13.1589 137.57 13.4141C138.013 13.6693 138.354 14.0365 138.594 14.5156C138.859 14.0312 139.211 13.6641 139.648 13.4141C140.091 13.1589 140.615 13.0312 141.219 13.0312C142.172 13.0312 142.914 13.3359 143.445 13.9453C143.982 14.5495 144.25 15.3958 144.25 16.4844V21Z" fill="white"/>
</svg>
